<svg width="58" height="58" xmlns="http://www.w3.org/2000/svg"><g fill="none" fill-rule="evenodd"><path fill="#de007b" d="M0 0h58v58H0z"/><path d="M12.107 36.77c.498 0 .849-.027 1.173-.095.54-1.206 2.32-4.56 3.534-7.532.054 4.998 3.737 7.722 7.082 7.722 2.13 0 3.952-.931 5.165-2.615.282 1.383 1.296 2.534 3.994 2.534.404 0 .89-.054 1.308-.137V25.869c0-1.044.526-1.3.809-1.3-.109 1.836.903 3.136 2.252 3.136.797 0 1.659-.438 2.145-1.327.621 2.588 1.834 6.31 2.28 7.256.485 1.056 1.228 3.08 4.33 2.902-.419.755-1.133 1.727-1.687 2.248-.214.204-.486.368-.62 0-.512-1.398-1.51-2.508-3.17-2.508-1.753 0-2.765 1.314-2.765 2.631 0 1.588 1.308 3.011 3.265 3.011 2.468 0 4.815-2.532 7.446-7.71 2.198-4.325 3.384-7.31 3.384-9.35 0-2.274-1.483-3.315-2.886-3.315-1.835 0-3.021 1.534-3.021 3.108 0 2.698 2.184 3.45 3.276 3.932.258.11.323.287.244.67-.202.917-1.146 2.984-1.862 4.327-1.456-2.849-2.617-6.504-3.223-9.408-.337-1.643-1.093-2.63-2.712-2.63-1.132 0-1.915.51-2.32 1.262-.472-.878-1.28-1.261-2.063-1.261-1.268 0-2.496.918-3.224 2.138-.31-1.247-1.16-1.987-3.966-1.987-.39 0-.984.042-1.322.097v2.778c-.74-2.053-2.79-3.026-4.976-3.026-2.495 0-4.707 1.302-5.99 3.342v-.026c0-2.275-1.47-3.316-2.872-3.316-1.835 0-3.02 1.534-3.02 3.108 0 2.698 2.09 3.45 3.182 3.932.256.11.378.287.242.67-.35 1.04-1.254 3.025-1.915 4.3-1.227-2.286-2.59-6.505-3.225-9.38-.363-1.644-1.212-2.63-2.71-2.63-1.74 0-2.698 1.18-2.698 2.67 0 1.932 2.132 7.915 3.332 10.422.58 1.217 1.512 2.136 3.804 2.136zm16.86-3.464c0 .137 0 .274.013.41-3.236.891-5.855-.574-6.972-3.244 4.208.095 6.258-1.014 6.958-2.643v5.477zm-7.54-5.942c.013-2.89.985-4.354 2.092-4.354.754 0 1.401.532 1.401 2.23 0 1.808-.877 3.768-3.223 4.286a8.546 8.546 0 0 1-.27-2.162z" fill="#FFF"/></g></svg>